<svg width="249" height="93" viewBox="0 0 249 93" fill="none" xmlns="http://www.w3.org/2000/svg">
<rect width="67" height="93" fill="#DFCE34"/>
<path d="M123.58 39.1222C121.969 27.4886 113.02 20.7386 101.412 20.7386C87.7329 20.7386 77.429 30.7102 77.429 47.6364C77.429 64.5369 87.6051 74.5341 101.412 74.5341C113.864 74.5341 122.122 66.4801 123.58 56.483L114.017 56.4318C112.815 62.5682 107.804 66.0199 101.54 66.0199C93.0511 66.0199 86.9659 59.6534 86.9659 47.6364C86.9659 35.8239 93 29.2528 101.565 29.2528C107.932 29.2528 112.918 32.858 114.017 39.1222H123.58Z" fill="black"/>
<path d="M131.857 73.8182H141.113V50.7301C141.113 45.7443 144.871 42.2159 149.959 42.2159C151.519 42.2159 153.462 42.4972 154.255 42.7528V34.2386C153.411 34.0852 151.954 33.983 150.931 33.983C146.431 33.983 142.673 36.5398 141.241 41.0909H140.832V34.5455H131.857V73.8182Z" fill="black"/>
<path d="M170.932 74.6108C177.094 74.6108 180.776 71.7216 182.463 68.4233H182.77V73.8182H191.668V47.5341C191.668 37.1534 183.205 34.0341 175.713 34.0341C167.455 34.0341 161.114 37.7159 159.068 44.875L167.71 46.1023C168.631 43.4176 171.239 41.1165 175.764 41.1165C180.06 41.1165 182.412 43.3153 182.412 47.1761V47.3295C182.412 49.9886 179.625 50.1165 172.696 50.858C165.077 51.6761 157.79 53.9517 157.79 62.7983C157.79 70.5199 163.44 74.6108 170.932 74.6108ZM173.335 67.8097C169.474 67.8097 166.713 66.0455 166.713 62.6449C166.713 59.0909 169.807 57.608 173.949 57.0199C176.378 56.6875 181.236 56.0739 182.437 55.1023V59.7301C182.437 64.1023 178.909 67.8097 173.335 67.8097Z" fill="black"/>
<path d="M220.866 34.5455H212.71V31.4517C212.71 28.3835 213.989 26.6705 217.44 26.6705C218.898 26.6705 220.125 27.0028 220.892 27.233L222.758 20.0739C221.557 19.6648 218.923 19 215.727 19C208.901 19 203.455 22.9119 203.455 30.8381V34.5455H197.651V41.7045H203.455V73.8182H212.71V41.7045H220.866V34.5455Z" fill="black"/>
<path d="M247.726 34.5455H239.979V25.1364H230.723V34.5455H225.149V41.7045H230.723V63.5398C230.672 70.929 236.041 74.5597 242.996 74.3551C245.629 74.2784 247.445 73.767 248.442 73.4347L246.882 66.1989C246.371 66.3267 245.322 66.5568 244.172 66.5568C241.845 66.5568 239.979 65.7386 239.979 62.0057V41.7045H247.726V34.5455Z" fill="black"/>
<path d="M17.1648 72.3636H51.4262V64.4119H26.6506V50.1193H49.4574V42.1676H26.6506V27.9517H51.2216V20H17.1648V72.3636Z" fill="white"/>
</svg>